<svg width="22" height="19" viewBox="0 0 22 19" fill="none" xmlns="http://www.w3.org/2000/svg">
<path d="M20.75 0.5H14.75C13.9544 0.5 13.1913 0.81607 12.6287 1.37868C12.0661 1.94129 11.75 2.70435 11.75 3.5V11.7247C11.7526 11.9182 11.6818 12.1056 11.5519 12.2491C11.422 12.3926 11.2425 12.4816 11.0497 12.4981C10.9471 12.5049 10.8442 12.4906 10.7474 12.456C10.6506 12.4213 10.5619 12.3672 10.4869 12.2968C10.4119 12.2265 10.3522 12.1415 10.3115 12.0471C10.2707 11.9527 10.2498 11.8509 10.25 11.7481V3.5C10.25 2.70435 9.93393 1.94129 9.37132 1.37868C8.80871 0.81607 8.04565 0.5 7.25 0.5H1.25C1.05109 0.5 0.860322 0.579018 0.71967 0.71967C0.579018 0.860322 0.5 1.05109 0.5 1.25V14.75C0.5 14.9489 0.579018 15.1397 0.71967 15.2803C0.860322 15.421 1.05109 15.5 1.25 15.5H8C8.59576 15.5 9.16721 15.7363 9.589 16.157C10.0108 16.5778 10.2485 17.1486 10.25 17.7444C10.247 17.8975 10.2915 18.0478 10.3775 18.1746C10.4635 18.3013 10.5866 18.3983 10.73 18.4522C10.8438 18.4961 10.9666 18.5116 11.0878 18.4973C11.209 18.483 11.3248 18.4394 11.4253 18.3702C11.5258 18.3011 11.6079 18.2084 11.6645 18.1003C11.721 17.9923 11.7504 17.872 11.75 17.75C11.75 17.1533 11.9871 16.581 12.409 16.159C12.831 15.7371 13.4033 15.5 14 15.5H20.75C20.9489 15.5 21.1397 15.421 21.2803 15.2803C21.421 15.1397 21.5 14.9489 21.5 14.75V1.25C21.5 1.05109 21.421 0.860322 21.2803 0.71967C21.1397 0.579018 20.9489 0.5 20.75 0.5ZM18.5 11.75H14.7753C14.5818 11.7526 14.3944 11.6818 14.2509 11.5519C14.1074 11.422 14.0184 11.2425 14.0019 11.0497C13.9951 10.9471 14.0094 10.8442 14.044 10.7474C14.0787 10.6506 14.1328 10.5619 14.2032 10.4869C14.2735 10.4119 14.3585 10.3522 14.4529 10.3115C14.5473 10.2707 14.6491 10.2498 14.7519 10.25H18.4766C18.6701 10.2474 18.8575 10.3182 19.001 10.4481C19.1445 10.578 19.2334 10.7575 19.25 10.9503C19.2568 11.0529 19.2425 11.1558 19.2078 11.2526C19.1732 11.3494 19.119 11.4381 19.0487 11.5131C18.9784 11.5881 18.8934 11.6478 18.799 11.6885C18.7046 11.7293 18.6028 11.7502 18.5 11.75ZM18.5 8.75H14.7753C14.5818 8.75261 14.3944 8.68183 14.2509 8.55191C14.1074 8.42198 14.0184 8.24255 14.0019 8.04969C13.9951 7.9471 14.0094 7.8442 14.044 7.74739C14.0787 7.65059 14.1328 7.56193 14.2032 7.48694C14.2735 7.41194 14.3585 7.35221 14.4529 7.31145C14.5473 7.27069 14.6491 7.24977 14.7519 7.25H18.4766C18.6701 7.2474 18.8575 7.31817 19.001 7.44809C19.1445 7.57802 19.2334 7.75745 19.25 7.95031C19.2568 8.0529 19.2425 8.1558 19.2078 8.25261C19.1732 8.34942 19.119 8.43807 19.0487 8.51307C18.9784 8.58806 18.8934 8.64779 18.799 8.68855C18.7046 8.72931 18.6028 8.75023 18.5 8.75ZM18.5 5.75H14.7753C14.5814 5.75308 14.3936 5.68252 14.2497 5.55255C14.1058 5.42258 14.0166 5.24288 14 5.04969C13.9932 4.9471 14.0075 4.8442 14.0422 4.74739C14.0768 4.65059 14.131 4.56193 14.2013 4.48694C14.2716 4.41194 14.3566 4.35221 14.451 4.31145C14.5454 4.27069 14.6472 4.24977 14.75 4.25H18.4747C18.6686 4.24692 18.8564 4.31748 19.0003 4.44745C19.1442 4.57742 19.2334 4.75713 19.25 4.95031C19.2568 5.0529 19.2425 5.1558 19.2078 5.25261C19.1732 5.34942 19.119 5.43807 19.0487 5.51306C18.9784 5.58806 18.8934 5.64779 18.799 5.68855C18.7046 5.72931 18.6028 5.75023 18.5 5.75Z" fill="#9998E1"/>
</svg>
