<svg width="14" height="14" viewBox="0 0 14 14" fill="none" xmlns="http://www.w3.org/2000/svg">
<path d="M13.9483 5.57879C13.8858 5.38661 13.7678 5.21724 13.6092 5.09201C13.4506 4.96677 13.2585 4.89128 13.0571 4.87504L9.36955 4.57754L7.9458 1.13441C7.86881 0.946796 7.73776 0.786316 7.56932 0.673372C7.40088 0.560428 7.20267 0.500122 6.99987 0.500122C6.79707 0.500122 6.59885 0.560428 6.43041 0.673372C6.26197 0.786316 6.13093 0.946796 6.05393 1.13441L4.63143 4.57691L0.942054 4.87504C0.740289 4.8921 0.548047 4.96833 0.389413 5.09416C0.230778 5.22 0.112807 5.38986 0.0502791 5.58245C-0.0122488 5.77503 -0.0165525 5.98179 0.0379073 6.17682C0.0923671 6.37184 0.203168 6.54646 0.356429 6.67879L3.16893 9.10566L2.31205 12.7344C2.26478 12.9314 2.27695 13.138 2.34704 13.3282C2.41713 13.5183 2.54199 13.6833 2.70584 13.8025C2.8697 13.9217 3.0652 13.9896 3.26765 13.9978C3.4701 14.0059 3.67042 13.9538 3.8433 13.8482L6.99955 11.9057L10.1577 13.8482C10.3305 13.9532 10.5306 14.0048 10.7327 13.9964C10.9348 13.9879 11.1299 13.9199 11.2934 13.8008C11.4569 13.6817 11.5816 13.5169 11.6516 13.3272C11.7217 13.1374 11.734 12.9312 11.6871 12.7344L10.8271 9.10504L13.6396 6.67816C13.7941 6.54605 13.9059 6.37106 13.9608 6.17535C14.0158 5.97964 14.0114 5.77202 13.9483 5.57879ZM12.9896 5.92066L9.9458 8.54566C9.87639 8.60549 9.82476 8.68325 9.79654 8.77043C9.76832 8.85762 9.76461 8.95088 9.7858 9.04004L10.7158 12.965C10.7182 12.9704 10.7184 12.9766 10.7165 12.9822C10.7145 12.9877 10.7105 12.9923 10.7052 12.995C10.6939 13.0038 10.6908 13.0019 10.6814 12.995L7.26143 10.8919C7.18257 10.8438 7.09192 10.8185 6.99955 10.8188V1.50004C7.01455 1.50004 7.01643 1.50504 7.02143 1.51629L8.56205 5.24129C8.59722 5.32643 8.65523 5.40021 8.72967 5.45447C8.80412 5.50873 8.89211 5.54137 8.98393 5.54879L12.9783 5.87129C12.9883 5.87129 12.9939 5.87129 12.9996 5.88941C13.0052 5.90754 12.9996 5.91441 12.9896 5.92066Z" fill="#FF9700"/>
</svg>
