<svg width="32" height="32" viewBox="0 0 32 32" fill="none" xmlns="http://www.w3.org/2000/svg">
<path d="M19.2929 5.29243L9.29292 15.2924C9.19994 15.3853 9.12618 15.4956 9.07586 15.617C9.02554 15.7384 8.99964 15.8685 8.99964 15.9999C8.99964 16.1313 9.02554 16.2615 9.07586 16.3829C9.12618 16.5043 9.19994 16.6146 9.29292 16.7074L19.2929 26.7074C19.4806 26.8951 19.7351 27.0005 20.0004 27.0005C20.2658 27.0005 20.5203 26.8951 20.7079 26.7074C20.8956 26.5198 21.001 26.2653 21.001 25.9999C21.001 25.7346 20.8956 25.4801 20.7079 25.2924L11.4142 15.9999L20.7079 6.70743C20.8008 6.61452 20.8745 6.50422 20.9248 6.38283C20.9751 6.26143 21.001 6.13133 21.001 5.99993C21.001 5.86854 20.9751 5.73843 20.9248 5.61703C20.8745 5.49564 20.8008 5.38534 20.7079 5.29243C20.615 5.19952 20.5047 5.12582 20.3833 5.07554C20.2619 5.02526 20.1318 4.99937 20.0004 4.99937C19.869 4.99937 19.7389 5.02526 19.6175 5.07554C19.4961 5.12582 19.3858 5.19952 19.2929 5.29243Z" fill="black" fill-opacity="0.6"/>
</svg>
