<svg width="32" height="32" viewBox="0 0 32 32" fill="none" xmlns="http://www.w3.org/2000/svg">
<path d="M12.7071 5.29243L22.7071 15.2924C22.8001 15.3853 22.8738 15.4956 22.9241 15.617C22.9745 15.7384 23.0004 15.8685 23.0004 15.9999C23.0004 16.1313 22.9745 16.2615 22.9241 16.3829C22.8738 16.5043 22.8001 16.6146 22.7071 16.7074L12.7071 26.7074C12.5194 26.8951 12.2649 27.0005 11.9996 27.0005C11.7342 27.0005 11.4797 26.8951 11.2921 26.7074C11.1044 26.5198 10.999 26.2653 10.999 25.9999C10.999 25.7346 11.1044 25.4801 11.2921 25.2924L20.5858 15.9999L11.2921 6.70743C11.1992 6.61452 11.1255 6.50422 11.0752 6.38283C11.0249 6.26143 10.999 6.13133 10.999 5.99993C10.999 5.86854 11.0249 5.73843 11.0752 5.61703C11.1255 5.49564 11.1992 5.38534 11.2921 5.29243C11.385 5.19952 11.4953 5.12582 11.6167 5.07554C11.7381 5.02526 11.8682 4.99937 11.9996 4.99937C12.131 4.99937 12.2611 5.02526 12.3825 5.07554C12.5039 5.12582 12.6142 5.19952 12.7071 5.29243Z" fill="black"/>
</svg>
