<svg width="14" height="14" viewBox="0 0 14 14" fill="none" xmlns="http://www.w3.org/2000/svg">
<path d="M13.6431 6.67815L10.8306 9.10502L11.6875 12.7344C11.7347 12.9314 11.7226 13.138 11.6525 13.3281C11.5824 13.5182 11.4575 13.6833 11.2937 13.8025C11.1298 13.9217 10.9343 13.9896 10.7319 13.9977C10.5294 14.0059 10.3291 13.9538 10.1562 13.8481L6.99996 11.9056L3.84184 13.8481C3.66898 13.9532 3.4689 14.0048 3.2668 13.9963C3.06469 13.9879 2.8696 13.9199 2.70609 13.8008C2.54257 13.6817 2.41795 13.5169 2.3479 13.3272C2.27786 13.1374 2.26553 12.9312 2.31246 12.7344L3.17246 9.10502L0.359961 6.67815C0.207022 6.54596 0.0964141 6.37166 0.0419501 6.17699C-0.0125139 5.98232 -0.00842004 5.77592 0.0537205 5.58356C0.115861 5.39121 0.233294 5.22142 0.391354 5.09541C0.549414 4.9694 0.741096 4.89274 0.942461 4.87502L4.62996 4.57752L6.05246 1.13502C6.12946 0.947406 6.2605 0.786926 6.42894 0.673982C6.59738 0.561038 6.7956 0.500732 6.9984 0.500732C7.2012 0.500732 7.39942 0.561038 7.56785 0.673982C7.73629 0.786926 7.86734 0.947406 7.94433 1.13502L9.36621 4.57752L13.0537 4.87502C13.2555 4.89208 13.4477 4.96831 13.6063 5.09415C13.765 5.21999 13.883 5.38984 13.9455 5.58243C14.008 5.77502 14.0123 5.98178 13.9579 6.1768C13.9034 6.37182 13.7926 6.54644 13.6393 6.67877L13.6431 6.67815Z" fill="#FF9700"/>
</svg>
